. 
 
http://www.torrenting.com          :     Once & For all ;)


               www . Torrenting . Com 

(((((((((((((= Enjoy No RAR releases =))))))))))))))))))))


...................................NFO:....................................

.[img]http://img163.imageshack.us/img163/3474/horrifd.jpg[/img]
[code]
Horrid Henry The Movie 2011 DVDRIP XVID AC3-26K

SOURCES:
HORRID HENRY 2011 PAL DVDR Legend-Rg

IMDB:http://www.imdb.com/title/tt1684555/

Plot:Horrid Henry finds himself doing things he never ever thought he'd do, and then some.

Notes:
Thnxs to for the vob files legend rg you guyz rock!
added few filters to video and audio so enjoy :P
also english subs included !
Encoded by LoGiCuRL ENjoy!

Greetz

greetz to fellow friends you know whom you are :P


Format                                   : AVI
Format/Info                              : Audio Video Interleave
Format profile                           : OpenDML
File size                                : 1.40 GiB
Duration                                 : 1h 29mn
Overall bit rate                         : 2 257 Kbps
Movie name                               : Horrid Henry The Movie 2011 DVDRIP XVID AC3-26K
Writing application                      : Lavf52.78.4
Original source form/Name                : HORRID HENRY 2011 PAL DVDR Legend-Rg

Video
ID                                       : 0
Format                                   : MPEG-4 Visual
Format profile                           : Advanced Simple@L5
Format settings, BVOP                    : 2
Format settings, QPel                    : No
Format settings, GMC                     : No warppoints
Format settings, Matrix                  : Default (H.263)
Muxing mode                              : Packed bitstream
Codec ID                                 : XVID
Codec ID/Hint                            : XviD
Duration                                 : 1h 29mn
Bit rate                                 : 1 797 Kbps
Width                                    : 720 pixels
Height                                   : 390 pixels
Display aspect ratio                     : 16:9
Frame rate                               : 25.000 fps
Color space                              : YUV
Chroma subsampling                       : 4:2:0
Bit depth                                : 8 bits
Scan type                                : Progressive
Compression mode                         : Lossy
Bits/(Pixel*Frame)                       : 0.256
Stream size                              : 1.12 GiB (80%)
Writing library                          : XviD 1.2.1 (UTC 2008-12-04)

Audio
ID                                       : 1
Format                                   : AC-3
Format/Info                              : Audio Coding 3
Mode extension                           : CM (complete main)
Codec ID                                 : 2000
Duration                                 : 1h 28mn
Bit rate mode                            : Constant
Bit rate                                 : 448 Kbps
Channel(s)                               : 6 channels
Channel positions                        : Front: L C R, Side: L R, LFE
Sampling rate                            : 48.0 KHz
Bit depth                                : 16 bits
Compression mode                         : Lossy
Stream size                              : 285 MiB (20%)
Alignment                                : Aligned on interleaves
Interleave, duration                     : 32 ms (0.80 video frame)
Interleave, preload duration             : 32 ms

[/code]
Screens:
[img]http://img843.imageshack.us/img843/9224/vlcsnap2011112619h38m10.png[/img]
[img]http://img850.imageshack.us/img850/6601/vlcsnap2011112619h39m02.png[/img]
[img]http://img705.imageshack.us/img705/91/vlcsnap2011112619h39m06.png[/img]
[img]http://img823.imageshack.us/img823/3390/vlcsnap2011112619h39m15.png[/img]
[img]http://img831.imageshack.us/img831/9082/vlcsnap2011112619h39m24.png[/img]
[img]http://img651.imageshack.us/img651/9361/vlcsnap2011112619h39m35.png[/img]